# xmcd
#
# Track frame offsets:
#	150
#	16582
#	33982
#	56972
#	73569
#	87604
#	113632
#	130869
#	151029
#	171091
#	185088
#	201525
#	213057
#	228217
#	240450
#	251597
#	262427
#	277107
#	292840
#	305930
#	319262
#	332067
#
# Disc length: 4675 seconds
#
# Revision: 1
# Processed by: cddbd v1.5.1PL0 Copyright (c) Steve Scherf et al.
# Submitted via: audiograbber 1.83.01
#
DISCID=49124116
DTITLE=Alan Jackson - Compilation 6
DYEAR=1900
DGENRE=Country
TTITLE0=Mercury Blues
TTITLE1=Designated Drinker
TTITLE2=Where Were You (When The World Stopped Turning)
TTITLE3=That'd Be Alright
TTITLE4=When Love Comes Around
TTITLE5=Where Were You (When The World Stopped Turning) (Live)
TTITLE6=Right On The Money
TTITLE7=Little Man
TTITLE8=Another Good Reason
TTITLE9=Pop A Top
TTITLE10=Right In The Palm Of Your Hand
TTITLE11=Revenooer Man
TTITLE12=My Own Kind Of Hat
TTITLE13=She Just Started Liking Cheatin' Songs
TTITLE14=Chattahoochee
TTITLE15=She Got The Rhythm ( And I Got The Blues )
TTITLE16=I Don't Need The Booze ( To Get A Buzz On )
TTITLE17=( Who Says ) You Can't Have It All
TTITLE18=Up To My Ears In Tears
TTITLE19=Tropical Depression
TTITLE20=She Likes It Too
TTITLE21=Work In Progress
EXTD=
EXTT0=
EXTT1=
EXTT2=
EXTT3=
EXTT4=
EXTT5=
EXTT6=
EXTT7=
EXTT8=
EXTT9=
EXTT10=
EXTT11=
EXTT12=
EXTT13=
EXTT14=
EXTT15=
EXTT16=
EXTT17=
EXTT18=
EXTT19=
EXTT20=
EXTT21=
PLAYORDER=
